<?xml version="1.0" encoding="UTF-8"?>
<svg xmlns="http://www.w3.org/2000/svg" width="599" height="221" viewBox="0 0 599 221" fill="none">
  <path d="M163.8 119.15C151.8 119.55 146.6 118.217 148.467 115.284C148.867 114.617 155.4 114.084 163.133 114.084C175.8 114.084 177.133 114.35 176.733 116.35C176.333 118.35 174.467 118.75 163.8 119.15Z" fill="black"></path>
  <path d="M148.467 129.95C146.6 132.884 151.8 134.217 163.8 133.817C174.467 133.417 176.333 133.017 176.733 131.017C177.133 129.017 175.8 128.75 163.133 128.75C155.4 128.75 148.867 129.284 148.467 129.95Z" fill="black"></path>
  <path d="M163.8 148.484C151.8 148.884 146.6 147.55 148.467 144.617C148.867 143.95 155.4 143.417 163.133 143.417C175.8 143.417 177.133 143.684 176.733 145.684C176.333 147.684 174.467 148.084 163.8 148.484Z" fill="black"></path>
  <path d="M148.467 159.284C146.6 162.217 151.8 163.55 163.8 163.15C174.467 162.75 176.333 162.35 176.733 160.35C177.133 158.35 175.8 158.084 163.133 158.084C155.4 158.084 148.867 158.617 148.467 159.284Z" fill="black"></path>
  <path d="M100.867 163.15C90.2 162.75 88.3333 162.35 87.9333 160.35C87.5333 158.35 88.8666 158.084 101.533 158.084C109.267 158.084 115.8 158.617 116.2 159.284C118.067 162.217 112.867 163.55 100.867 163.15Z" fill="black"></path>
  <path fill-rule="evenodd" clip-rule="evenodd" d="M106.067 32.217C100.333 33.5504 101.267 29.417 107.4 27.017C119.533 21.9504 135.133 26.7504 143 37.817C146.2 42.4837 147 45.1503 147.4 52.7504C147.933 60.7504 147.533 62.617 144.2 68.7504C142.2 72.4837 138.733 76.7504 136.733 78.217C134.467 79.817 133 82.217 133 83.9504C133 85.6837 131.667 88.617 130.2 90.617C127.4 94.0837 127.4 94.3504 129.8 96.0837C131.933 97.5504 132.867 97.417 136.333 95.017C140.067 92.217 141.933 92.0837 164.733 92.0837H189.267L195.667 99.5504V188.884L192.333 192.084C189.667 194.884 187.8 195.417 181 195.417C173.933 195.417 172.867 195.15 173.267 193.15C173.533 191.284 175.267 190.617 180.333 190.35C187.267 189.95 190.333 188.35 190.333 185.284C190.333 183.817 185.667 183.417 165.4 183.417C144.2 183.417 140.2 183.684 138.067 185.684C136.733 186.884 135.667 188.35 135.667 189.017C135.667 189.55 141.933 190.084 149.667 190.084C162.733 190.084 163.667 190.217 163.667 192.75C163.667 195.417 162.733 195.417 119.667 195.417H75.5333L72.3333 192.084C69.1333 189.017 69 188.084 69 171.817V154.75H62.2C56.4667 154.75 55 154.217 52.2 151.017C50.4667 149.017 49 146.084 49 144.617C49 143.15 47.6667 141.55 45.8 140.75C41.1333 139.017 37 133.017 37 127.95C37 124.35 36.2 123.15 33 121.417C27.6667 118.617 25 113.017 25 104.217C25 98.3504 25.6667 96.217 28.3333 92.8837C30.2 90.7504 33 88.4837 34.3333 88.0837C36.4667 87.417 37 86.0837 37 81.817C37 77.5504 37.8 75.6837 41.1333 72.617C43.4 70.4837 46.0667 68.7504 47.1333 68.7504C48.2 68.7504 49 67.5504 49 65.9504C49 64.4837 50.7333 61.417 52.8667 59.2837C57.4 54.7504 64.3333 54.0837 69.6667 57.5504C72.6 59.417 73.1333 59.417 75.9333 57.5504C77.5333 56.3503 81.1333 55.417 83.8 55.417C88.5849 55.417 88.6 55.2845 89.2604 49.4722L89.2667 49.417C90.2 41.6837 93.8 35.9504 96.3333 38.0837C97.9333 39.417 97.9333 40.217 96.4667 43.2837C91 53.9504 92.8667 63.817 102.333 73.017C107.133 77.5504 108.867 80.4837 109.267 83.6837C109.533 87.017 110.333 88.217 112.733 88.4837C115.533 88.8837 115.667 88.617 115.667 76.8837C115.667 65.1503 115.533 64.8837 112.067 63.1503C110.067 62.217 108.2 60.217 107.933 58.8837C107.533 56.7504 107.933 56.4837 110.467 57.417C114.6 58.7504 122.067 58.7504 126.2 57.417C128.733 56.4837 129.133 56.7504 128.733 58.8837C128.467 60.217 126.6 62.217 124.6 63.1503C121.133 64.8837 121 65.1503 121 76.8837C121 88.617 121.133 88.8837 124.067 88.4837C126.333 88.217 127.133 87.017 127.667 83.2837C128.2 79.9504 129.8 77.2837 133.4 74.0837C145.4 63.6837 146.467 49.417 136.2 38.0837C129 30.217 121 28.617 106.067 32.217ZM70.3333 64.8837L66.8667 62.217C62.6 58.8837 61.1333 58.7504 57.2667 61.5504C53.4 64.217 53.4 68.7504 57.1333 68.7504C59 68.7504 59.6667 69.417 59.4 71.017C59.1333 72.7504 57.5333 73.5504 54.3333 73.817C46.2 74.3504 44.2 75.2837 42.6 78.7504C39.5333 85.5504 40.4667 87.417 46.7333 87.417C53.5333 87.417 55.1333 86.4837 56.8667 81.6837C57.6667 79.6837 59.1333 78.0837 60.3333 78.0837C63.4 78.0837 62.7333 84.0837 59.1333 88.3504C56.2 91.6837 55 92.0837 45.5333 92.4837C32.2 93.1504 30.3333 94.617 30.3333 104.35C30.3333 116.35 34.3333 120.35 38.6 112.75C41.5333 107.684 46.2 105.55 52.0667 106.617C58.4667 107.817 61.2667 111.55 62.0667 119.55C62.6 125.684 62.4667 126.35 60.2 125.817C58.3333 125.55 57.4 123.817 56.8667 119.684C56.0667 113.284 54.2 111.417 48.8667 111.417C43.9333 111.417 41.9333 114.35 41.2667 122.484C40.8667 128.217 41.2667 130.084 43.6667 133.15C46.3333 136.617 46.7333 136.617 48.3333 134.617C51.1333 130.75 54.7333 133.284 53.9333 138.484C52.8667 145.55 56.2 150.084 62.4667 150.084C70.2 150.084 70.3333 149.017 70.3333 105.017V64.8837ZM90.2 64.7504C89.4 62.4837 88.2 60.7504 87.6667 60.7504C87 60.7504 85.8 60.4837 84.7333 60.0837C82.8667 59.417 78.3333 61.6837 76.7333 63.9504C76.2 64.7504 75.6667 83.417 75.6667 105.55C75.6667 142.75 75.8 145.817 78.0667 147.817C81.2667 150.75 86.7333 150.75 89.4 147.684C90.4667 146.484 91.6667 142.75 91.9333 139.417C92.2 135.15 93 133.284 94.6 133.017C95.8 132.75 97 133.55 97.2667 134.75C97.6667 136.617 97.9333 136.617 100.733 134.75C103.267 132.884 103.667 131.417 103.667 123.284C103.667 114.617 103.4 113.95 100.333 112.484C97.9333 111.417 95.6667 111.284 93.2667 112.217C90.2 113.284 89.5333 114.484 89 119.417C88.4667 123.684 87.6667 125.55 86.0667 125.817C84.0667 126.217 83.6667 125.284 83.6667 120.084C83.6667 107.684 96.4667 101.417 104.867 109.817C106.867 111.817 108.867 114.35 109.267 115.417C109.8 117.15 110.333 117.017 112.867 114.884C116.467 111.55 116.467 109.684 112.333 105.55C110.067 103.284 109 100.75 109 97.6837V93.017L99.5333 92.4837C91.1333 92.0837 89.6667 91.5504 86.8667 88.3504C83 83.817 82.4667 77.6837 85.9333 78.3504C87.2667 78.617 88.4667 79.9504 88.7333 81.417C89.4 85.2837 92.8667 87.417 98.6 87.417C103 87.417 103.667 87.017 103.667 84.217C103.667 80.3504 96.4667 74.4837 90.8667 73.817C86.3333 73.2837 84.4667 68.7504 88.8667 68.7504C91.2667 68.7504 91.4 68.3504 90.2 64.7504ZM118.333 102.084C121.933 102.084 122.333 101.684 122.333 98.0837C122.333 94.4837 121.933 94.0837 118.333 94.0837C114.733 94.0837 114.333 94.4837 114.333 98.0837C114.333 101.684 114.733 102.084 118.333 102.084ZM190.333 139.017C190.333 110.35 189.933 99.5504 188.733 98.3504C187.667 97.2837 180.333 96.7504 164.867 96.7504C143.133 96.7504 142.333 96.8837 138.733 99.9504L135 103.15L134.6 142.084C134.2 179.15 134.333 181.017 136.6 179.95C137.933 179.284 150.6 178.617 164.733 178.35L190.333 177.95V139.017ZM130.333 144.617C130.333 124.484 129.933 106.75 129.533 105.017C129 103.417 128.333 102.084 127.8 102.217C126.467 102.484 121 108.75 121 110.217C121 113.417 116.6 119.55 113 121.417C108.067 123.95 107.533 128.75 112.067 128.75C113.8 128.75 115.667 129.15 116.067 129.684C117.533 131.15 114.2 134.084 111 134.084C109.4 134.084 107 135.417 105.533 136.884C104.2 138.484 101.533 140.35 99.6667 141.284C96.7333 142.484 97.4 142.75 105 143.15C116.2 143.55 117.8 144.217 115.667 146.75C114.467 148.084 111.4 148.75 105.533 148.75C98.7333 148.75 96.2 149.417 92.2 152.084C86.6 155.95 81.5333 156.35 77.2667 153.284L74.3333 151.284V177.95L100.067 178.35C114.067 178.617 126.733 179.284 128.067 179.95C130.2 181.017 130.333 178.884 130.333 144.617ZM129 189.017C129 188.35 127.933 186.884 126.6 185.684C124.467 183.684 120.467 183.417 99.2667 183.417C73.8 183.417 71.4 183.95 75.9333 188.484C77.8 190.35 129 190.75 129 189.017Z" fill="black"></path>
  <path d="M256.624 87.8423V93.2085H231.741V87.8423H256.624ZM233.04 43.4429V93.2085H226.443V43.4429H233.04ZM261.546 75.1274V74.3413C261.546 71.6753 261.933 69.203 262.708 66.9243C263.482 64.6229 264.599 62.6291 266.057 60.9429C267.516 59.2339 269.282 57.9123 271.355 56.978C273.429 56.021 275.753 55.5425 278.328 55.5425C280.925 55.5425 283.261 56.021 285.335 56.978C287.431 57.9123 289.208 59.2339 290.667 60.9429C292.148 62.6291 293.276 64.6229 294.05 66.9243C294.825 69.203 295.213 71.6753 295.213 74.3413V75.1274C295.213 77.7935 294.825 80.2658 294.05 82.5444C293.276 84.8231 292.148 86.8169 290.667 88.5259C289.208 90.2121 287.442 91.5337 285.369 92.4907C283.318 93.425 280.994 93.8921 278.396 93.8921C275.798 93.8921 273.463 93.425 271.389 92.4907C269.316 91.5337 267.538 90.2121 266.057 88.5259C264.599 86.8169 263.482 84.8231 262.708 82.5444C261.933 80.2658 261.546 77.7935 261.546 75.1274ZM267.869 74.3413V75.1274C267.869 76.9731 268.085 78.7163 268.518 80.3569C268.951 81.9748 269.601 83.4103 270.466 84.6636C271.355 85.9168 272.46 86.908 273.782 87.6372C275.103 88.3436 276.642 88.6968 278.396 88.6968C280.128 88.6968 281.643 88.3436 282.942 87.6372C284.264 86.908 285.357 85.9168 286.223 84.6636C287.089 83.4103 287.739 81.9748 288.172 80.3569C288.627 78.7163 288.855 76.9731 288.855 75.1274V74.3413C288.855 72.5184 288.627 70.798 288.172 69.1802C287.739 67.5396 287.078 66.0926 286.189 64.8394C285.323 63.5633 284.229 62.5607 282.908 61.8315C281.609 61.1024 280.082 60.7378 278.328 60.7378C276.596 60.7378 275.069 61.1024 273.748 61.8315C272.449 62.5607 271.355 63.5633 270.466 64.8394C269.601 66.0926 268.951 67.5396 268.518 69.1802C268.085 70.798 267.869 72.5184 267.869 74.3413ZM317.942 88.6968C319.446 88.6968 320.836 88.3892 322.112 87.7739C323.388 87.1587 324.436 86.3156 325.256 85.2446C326.077 84.1509 326.544 82.909 326.658 81.519H332.673C332.56 83.7065 331.819 85.7459 330.452 87.6372C329.107 89.5057 327.341 91.021 325.154 92.1831C322.966 93.3224 320.562 93.8921 317.942 93.8921C315.162 93.8921 312.735 93.4022 310.662 92.4224C308.611 91.4425 306.902 90.0981 305.535 88.3892C304.19 86.6802 303.176 84.7205 302.493 82.5103C301.832 80.2772 301.502 77.9188 301.502 75.4351V73.9995C301.502 71.5158 301.832 69.1688 302.493 66.9585C303.176 64.7254 304.19 62.7544 305.535 61.0454C306.902 59.3364 308.611 57.992 310.662 57.0122C312.735 56.0324 315.162 55.5425 317.942 55.5425C320.836 55.5425 323.365 56.1349 325.53 57.3198C327.695 58.4819 329.392 60.077 330.623 62.105C331.876 64.1102 332.56 66.3888 332.673 68.9409H326.658C326.544 67.4142 326.111 66.0356 325.359 64.8052C324.63 63.5747 323.627 62.5949 322.351 61.8657C321.098 61.1138 319.628 60.7378 317.942 60.7378C316.005 60.7378 314.376 61.1252 313.054 61.8999C311.755 62.6519 310.719 63.6772 309.944 64.9761C309.192 66.2521 308.645 67.6763 308.303 69.2485C307.984 70.798 307.825 72.3817 307.825 73.9995V75.4351C307.825 77.0529 307.984 78.6479 308.303 80.2202C308.622 81.7925 309.158 83.2166 309.91 84.4927C310.685 85.7687 311.721 86.7941 313.02 87.5688C314.342 88.3208 315.982 88.6968 317.942 88.6968ZM362.41 84.6636V56.2261H368.767V93.2085H362.717L362.41 84.6636ZM363.606 76.8706L366.238 76.8022C366.238 79.2632 365.976 81.5418 365.452 83.6382C364.95 85.7118 364.13 87.5119 362.991 89.0386C361.852 90.5653 360.359 91.7616 358.513 92.6274C356.668 93.4705 354.423 93.8921 351.78 93.8921C349.98 93.8921 348.328 93.63 346.824 93.106C345.343 92.5819 344.067 91.7729 342.996 90.6792C341.925 89.5854 341.093 88.1613 340.501 86.4067C339.931 84.6522 339.646 82.5444 339.646 80.0835V56.2261H345.969V80.1519C345.969 81.8153 346.152 83.1938 346.516 84.2876C346.904 85.3586 347.416 86.2131 348.054 86.8511C348.715 87.4663 349.444 87.8993 350.242 88.1499C351.062 88.4006 351.905 88.5259 352.771 88.5259C355.46 88.5259 357.59 88.0132 359.163 86.9878C360.735 85.9396 361.863 84.5382 362.547 82.7837C363.253 81.0063 363.606 79.0353 363.606 76.8706ZM399.939 83.3989C399.939 82.4875 399.734 81.6444 399.324 80.8696C398.936 80.0721 398.128 79.3543 396.897 78.7163C395.689 78.0555 393.866 77.4858 391.428 77.0073C389.378 76.5744 387.52 76.0617 385.857 75.4692C384.216 74.8768 382.815 74.159 381.653 73.3159C380.514 72.4728 379.636 71.4816 379.021 70.3423C378.406 69.203 378.098 67.87 378.098 66.3433C378.098 64.8849 378.417 63.5063 379.055 62.2075C379.716 60.9087 380.639 59.758 381.824 58.7554C383.032 57.7528 384.478 56.9666 386.165 56.397C387.851 55.8273 389.731 55.5425 391.804 55.5425C394.767 55.5425 397.296 56.0666 399.392 57.1147C401.489 58.1629 403.095 59.5643 404.212 61.3188C405.328 63.0506 405.886 64.9761 405.886 67.0952H399.563C399.563 66.0698 399.255 65.0786 398.64 64.1216C398.048 63.1418 397.171 62.3328 396.008 61.6948C394.869 61.0568 393.468 60.7378 391.804 60.7378C390.05 60.7378 388.626 61.0112 387.532 61.5581C386.461 62.0822 385.675 62.7544 385.173 63.5747C384.695 64.395 384.456 65.2609 384.456 66.1724C384.456 66.856 384.57 67.4712 384.797 68.0181C385.048 68.5422 385.481 69.0321 386.096 69.4878C386.712 69.9207 387.577 70.3309 388.694 70.7183C389.811 71.1056 391.235 71.493 392.966 71.8804C395.997 72.564 398.492 73.3843 400.452 74.3413C402.411 75.2983 403.87 76.4718 404.827 77.8618C405.784 79.2518 406.262 80.938 406.262 82.9204C406.262 84.5382 405.921 86.0194 405.237 87.3638C404.576 88.7082 403.608 89.8703 402.332 90.8501C401.078 91.8071 399.575 92.5591 397.82 93.106C396.088 93.63 394.14 93.8921 391.975 93.8921C388.717 93.8921 385.96 93.311 383.704 92.1489C381.448 90.9868 379.739 89.4829 378.577 87.6372C377.415 85.7915 376.834 83.8433 376.834 81.7925H383.191C383.282 83.5243 383.783 84.9028 384.695 85.9282C385.606 86.9308 386.723 87.6486 388.045 88.0815C389.366 88.4917 390.676 88.6968 391.975 88.6968C393.707 88.6968 395.154 88.4689 396.316 88.0132C397.501 87.5575 398.401 86.9308 399.016 86.1333C399.631 85.3358 399.939 84.4243 399.939 83.3989ZM256.487 159.383H263.049C262.708 162.528 261.808 165.342 260.349 167.826C258.891 170.309 256.829 172.28 254.163 173.739C251.497 175.174 248.17 175.892 244.182 175.892C241.266 175.892 238.611 175.345 236.218 174.251C233.849 173.158 231.809 171.608 230.1 169.603C228.391 167.575 227.07 165.148 226.135 162.323C225.224 159.474 224.768 156.307 224.768 152.821V147.865C224.768 144.378 225.224 141.222 226.135 138.397C227.07 135.549 228.403 133.111 230.134 131.083C231.889 129.055 233.997 127.494 236.458 126.4C238.919 125.306 241.687 124.759 244.763 124.759C248.523 124.759 251.702 125.466 254.299 126.878C256.897 128.291 258.914 130.251 260.349 132.757C261.808 135.241 262.708 138.124 263.049 141.405H256.487C256.168 139.081 255.575 137.087 254.71 135.423C253.844 133.737 252.613 132.438 251.018 131.527C249.423 130.615 247.338 130.16 244.763 130.16C242.553 130.16 240.605 130.581 238.919 131.424C237.255 132.267 235.854 133.464 234.714 135.013C233.598 136.563 232.755 138.42 232.185 140.584C231.616 142.749 231.331 145.153 231.331 147.796V152.821C231.331 155.259 231.581 157.549 232.083 159.691C232.607 161.833 233.393 163.713 234.441 165.331C235.489 166.948 236.822 168.224 238.44 169.159C240.058 170.07 241.972 170.526 244.182 170.526C246.985 170.526 249.218 170.082 250.881 169.193C252.545 168.304 253.798 167.028 254.641 165.365C255.507 163.701 256.122 161.708 256.487 159.383ZM269.407 157.127V156.341C269.407 153.675 269.794 151.203 270.569 148.924C271.344 146.623 272.46 144.629 273.919 142.943C275.377 141.234 277.143 139.912 279.216 138.978C281.29 138.021 283.614 137.542 286.189 137.542C288.787 137.542 291.122 138.021 293.196 138.978C295.292 139.912 297.07 141.234 298.528 142.943C300.009 144.629 301.137 146.623 301.912 148.924C302.686 151.203 303.074 153.675 303.074 156.341V157.127C303.074 159.793 302.686 162.266 301.912 164.544C301.137 166.823 300.009 168.817 298.528 170.526C297.07 172.212 295.304 173.534 293.23 174.491C291.179 175.425 288.855 175.892 286.257 175.892C283.66 175.892 281.324 175.425 279.251 174.491C277.177 173.534 275.4 172.212 273.919 170.526C272.46 168.817 271.344 166.823 270.569 164.544C269.794 162.266 269.407 159.793 269.407 157.127ZM275.73 156.341V157.127C275.73 158.973 275.947 160.716 276.38 162.357C276.812 163.975 277.462 165.41 278.328 166.664C279.216 167.917 280.322 168.908 281.643 169.637C282.965 170.344 284.503 170.697 286.257 170.697C287.989 170.697 289.505 170.344 290.803 169.637C292.125 168.908 293.219 167.917 294.085 166.664C294.95 165.41 295.6 163.975 296.033 162.357C296.489 160.716 296.716 158.973 296.716 157.127V156.341C296.716 154.518 296.489 152.798 296.033 151.18C295.6 149.54 294.939 148.093 294.05 146.839C293.185 145.563 292.091 144.561 290.769 143.832C289.47 143.102 287.944 142.738 286.189 142.738C284.457 142.738 282.931 143.102 281.609 143.832C280.31 144.561 279.216 145.563 278.328 146.839C277.462 148.093 276.812 149.54 276.38 151.18C275.947 152.798 275.73 154.518 275.73 156.341ZM334.964 138.226H340.706V174.422C340.706 177.681 340.045 180.461 338.723 182.762C337.402 185.064 335.556 186.807 333.186 187.992C330.839 189.199 328.128 189.803 325.051 189.803C323.775 189.803 322.271 189.598 320.54 189.188C318.831 188.801 317.144 188.128 315.481 187.171C313.84 186.237 312.462 184.972 311.345 183.377L314.661 179.618C316.21 181.486 317.828 182.785 319.514 183.514C321.223 184.243 322.909 184.608 324.573 184.608C326.578 184.608 328.31 184.232 329.768 183.48C331.227 182.728 332.354 181.611 333.152 180.13C333.972 178.672 334.382 176.872 334.382 174.73V146.361L334.964 138.226ZM309.5 157.127V156.41C309.5 153.584 309.83 151.021 310.491 148.719C311.174 146.395 312.143 144.401 313.396 142.738C314.672 141.074 316.21 139.798 318.01 138.91C319.811 137.998 321.839 137.542 324.094 137.542C326.419 137.542 328.447 137.953 330.178 138.773C331.933 139.57 333.414 140.744 334.622 142.293C335.852 143.82 336.821 145.666 337.527 147.831C338.233 149.995 338.723 152.445 338.997 155.179V158.324C338.746 161.035 338.256 163.473 337.527 165.638C336.821 167.803 335.852 169.649 334.622 171.175C333.414 172.702 331.933 173.875 330.178 174.696C328.424 175.493 326.373 175.892 324.026 175.892C321.816 175.892 319.811 175.425 318.01 174.491C316.233 173.556 314.706 172.246 313.43 170.56C312.154 168.874 311.174 166.891 310.491 164.613C309.83 162.311 309.5 159.816 309.5 157.127ZM315.823 156.41V157.127C315.823 158.973 316.005 160.705 316.37 162.323C316.757 163.941 317.338 165.365 318.113 166.595C318.91 167.826 319.924 168.794 321.155 169.5C322.385 170.184 323.855 170.526 325.564 170.526C327.66 170.526 329.392 170.082 330.759 169.193C332.127 168.304 333.209 167.131 334.006 165.672C334.827 164.214 335.465 162.63 335.921 160.921V152.684C335.67 151.431 335.283 150.223 334.758 149.061C334.257 147.876 333.596 146.828 332.776 145.917C331.978 144.982 330.987 144.242 329.802 143.695C328.617 143.148 327.227 142.875 325.632 142.875C323.901 142.875 322.408 143.239 321.155 143.968C319.924 144.675 318.91 145.654 318.113 146.908C317.338 148.138 316.757 149.574 316.37 151.214C316.005 152.832 315.823 154.564 315.823 156.41ZM356.633 146.122V175.208H350.31V138.226H356.292L356.633 146.122ZM355.13 155.316L352.498 155.213C352.52 152.684 352.896 150.348 353.626 148.207C354.355 146.042 355.38 144.162 356.702 142.567C358.023 140.972 359.596 139.741 361.419 138.875C363.264 137.987 365.304 137.542 367.537 137.542C369.36 137.542 371 137.793 372.459 138.294C373.917 138.773 375.159 139.548 376.184 140.619C377.232 141.69 378.03 143.08 378.577 144.789C379.124 146.475 379.397 148.537 379.397 150.975V175.208H373.04V150.907C373.04 148.97 372.755 147.42 372.185 146.258C371.616 145.073 370.784 144.219 369.69 143.695C368.596 143.148 367.252 142.875 365.657 142.875C364.085 142.875 362.649 143.205 361.35 143.866C360.074 144.527 358.969 145.438 358.035 146.6C357.123 147.762 356.406 149.095 355.881 150.599C355.38 152.08 355.13 153.653 355.13 155.316ZM395.872 138.226V175.208H389.514V138.226H395.872ZM389.036 128.417C389.036 127.391 389.343 126.525 389.959 125.819C390.597 125.112 391.531 124.759 392.761 124.759C393.969 124.759 394.892 125.112 395.53 125.819C396.191 126.525 396.521 127.391 396.521 128.417C396.521 129.396 396.191 130.239 395.53 130.946C394.892 131.629 393.969 131.971 392.761 131.971C391.531 131.971 390.597 131.629 389.959 130.946C389.343 130.239 389.036 129.396 389.036 128.417ZM421.506 138.226V143.08H401.511V138.226H421.506ZM408.279 129.237H414.602V166.048C414.602 167.302 414.796 168.247 415.183 168.885C415.571 169.523 416.072 169.945 416.687 170.15C417.302 170.355 417.963 170.458 418.67 170.458C419.194 170.458 419.741 170.412 420.31 170.321C420.903 170.207 421.347 170.116 421.643 170.047L421.677 175.208C421.176 175.368 420.515 175.516 419.695 175.653C418.897 175.812 417.929 175.892 416.79 175.892C415.24 175.892 413.816 175.584 412.517 174.969C411.218 174.354 410.182 173.329 409.407 171.893C408.655 170.435 408.279 168.475 408.279 166.014V129.237ZM435.794 138.226V175.208H429.436V138.226H435.794ZM428.958 128.417C428.958 127.391 429.265 126.525 429.88 125.819C430.519 125.112 431.453 124.759 432.683 124.759C433.891 124.759 434.814 125.112 435.452 125.819C436.113 126.525 436.443 127.391 436.443 128.417C436.443 129.396 436.113 130.239 435.452 130.946C434.814 131.629 433.891 131.971 432.683 131.971C431.453 131.971 430.519 131.629 429.88 130.946C429.265 130.239 428.958 129.396 428.958 128.417ZM444.27 157.127V156.341C444.27 153.675 444.658 151.203 445.432 148.924C446.207 146.623 447.324 144.629 448.782 142.943C450.24 141.234 452.006 139.912 454.08 138.978C456.153 138.021 458.477 137.542 461.052 137.542C463.65 137.542 465.986 138.021 468.059 138.978C470.156 139.912 471.933 141.234 473.391 142.943C474.872 144.629 476 146.623 476.775 148.924C477.55 151.203 477.937 153.675 477.937 156.341V157.127C477.937 159.793 477.55 162.266 476.775 164.544C476 166.823 474.872 168.817 473.391 170.526C471.933 172.212 470.167 173.534 468.093 174.491C466.043 175.425 463.718 175.892 461.121 175.892C458.523 175.892 456.187 175.425 454.114 174.491C452.04 173.534 450.263 172.212 448.782 170.526C447.324 168.817 446.207 166.823 445.432 164.544C444.658 162.266 444.27 159.793 444.27 157.127ZM450.593 156.341V157.127C450.593 158.973 450.81 160.716 451.243 162.357C451.676 163.975 452.325 165.41 453.191 166.664C454.08 167.917 455.185 168.908 456.506 169.637C457.828 170.344 459.366 170.697 461.121 170.697C462.852 170.697 464.368 170.344 465.667 169.637C466.988 168.908 468.082 167.917 468.948 166.664C469.814 165.41 470.463 163.975 470.896 162.357C471.352 160.716 471.58 158.973 471.58 157.127V156.341C471.58 154.518 471.352 152.798 470.896 151.18C470.463 149.54 469.802 148.093 468.914 146.839C468.048 145.563 466.954 144.561 465.632 143.832C464.334 143.102 462.807 142.738 461.052 142.738C459.321 142.738 457.794 143.102 456.472 143.832C455.173 144.561 454.08 145.563 453.191 146.839C452.325 148.093 451.676 149.54 451.243 151.18C450.81 152.798 450.593 154.518 450.593 156.341ZM492.19 146.122V175.208H485.867V138.226H491.848L492.19 146.122ZM490.686 155.316L488.054 155.213C488.077 152.684 488.453 150.348 489.182 148.207C489.911 146.042 490.937 144.162 492.258 142.567C493.58 140.972 495.152 139.741 496.975 138.875C498.821 137.987 500.86 137.542 503.093 137.542C504.916 137.542 506.557 137.793 508.015 138.294C509.474 138.773 510.715 139.548 511.741 140.619C512.789 141.69 513.587 143.08 514.133 144.789C514.68 146.475 514.954 148.537 514.954 150.975V175.208H508.596V150.907C508.596 148.97 508.311 147.42 507.742 146.258C507.172 145.073 506.34 144.219 505.247 143.695C504.153 143.148 502.809 142.875 501.214 142.875C499.641 142.875 498.206 143.205 496.907 143.866C495.631 144.527 494.526 145.438 493.591 146.6C492.68 147.762 491.962 149.095 491.438 150.599C490.937 152.08 490.686 153.653 490.686 155.316ZM531.428 138.226V175.208H525.071V138.226H531.428ZM524.592 128.417C524.592 127.391 524.9 126.525 525.515 125.819C526.153 125.112 527.088 124.759 528.318 124.759C529.526 124.759 530.449 125.112 531.087 125.819C531.747 126.525 532.078 127.391 532.078 128.417C532.078 129.396 531.747 130.239 531.087 130.946C530.449 131.629 529.526 131.971 528.318 131.971C527.088 131.971 526.153 131.629 525.515 130.946C524.9 130.239 524.592 129.396 524.592 128.417ZM563.113 165.399C563.113 164.487 562.908 163.644 562.498 162.87C562.11 162.072 561.301 161.354 560.071 160.716C558.863 160.056 557.04 159.486 554.602 159.007C552.551 158.574 550.694 158.062 549.031 157.469C547.39 156.877 545.989 156.159 544.827 155.316C543.687 154.473 542.81 153.482 542.195 152.342C541.58 151.203 541.272 149.87 541.272 148.343C541.272 146.885 541.591 145.506 542.229 144.208C542.89 142.909 543.813 141.758 544.998 140.755C546.205 139.753 547.652 138.967 549.339 138.397C551.025 137.827 552.905 137.542 554.978 137.542C557.94 137.542 560.47 138.067 562.566 139.115C564.662 140.163 566.269 141.564 567.385 143.319C568.502 145.051 569.06 146.976 569.06 149.095H562.737C562.737 148.07 562.429 147.079 561.814 146.122C561.222 145.142 560.344 144.333 559.182 143.695C558.043 143.057 556.642 142.738 554.978 142.738C553.224 142.738 551.799 143.011 550.706 143.558C549.635 144.082 548.849 144.754 548.347 145.575C547.869 146.395 547.63 147.261 547.63 148.172C547.63 148.856 547.743 149.471 547.971 150.018C548.222 150.542 548.655 151.032 549.27 151.488C549.885 151.921 550.751 152.331 551.868 152.718C552.984 153.106 554.408 153.493 556.14 153.88C559.171 154.564 561.666 155.384 563.626 156.341C565.585 157.298 567.044 158.472 568.001 159.862C568.958 161.252 569.436 162.938 569.436 164.92C569.436 166.538 569.094 168.019 568.411 169.364C567.75 170.708 566.782 171.87 565.505 172.85C564.252 173.807 562.748 174.559 560.994 175.106C559.262 175.63 557.314 175.892 555.149 175.892C551.891 175.892 549.133 175.311 546.878 174.149C544.622 172.987 542.913 171.483 541.751 169.637C540.589 167.792 540.007 165.843 540.007 163.792H546.365C546.456 165.524 546.957 166.903 547.869 167.928C548.78 168.931 549.897 169.649 551.218 170.082C552.54 170.492 553.85 170.697 555.149 170.697C556.881 170.697 558.328 170.469 559.49 170.013C560.675 169.557 561.575 168.931 562.19 168.133C562.805 167.336 563.113 166.424 563.113 165.399Z" fill="black"></path>
</svg>
